#!OML:ASF F:\VICON\USERDATA\INSTALL\rory3\rory3.ASF
:FULLY-SPECIFIED
:DEGREES
457
root -0.848555 29.1915 -2.6421 -170.785 -10.479 178.365
lowerback 5.27039 0.860588 -4.8165
upperback 0.00515949 0.844158 0.284985
thorax -3.02788 0.486841 2.93309
lowerneck -15.9081 3.74509 -8.7472
upperneck 38.3731 4.46265 1.59541
head 16.094 -0.406092 2.68408
rclavicle 1.79403e-014 8.39865e-015
rhumerus -30.3802 0.912502 -83.2628
rradius 41.9232
rwrist 16.0835
rhand -20.4131 2.90481
rfingers 7.12502
rthumb 5.94098 -26.9919
lclavicle 1.79403e-014 8.39865e-015
lhumerus -29.16 5.42572 81.5175
lradius 37.0074
lwrist -0.0457733
lhand -17.5653 24.4278
lfingers 7.12502
lthumb 8.68988 54.2289
rfemur -29.2676 -5.68646 17.4046
rtibia 64.0778
rfoot -12.9246 -7.98626
rtoes 6.22613
lfemur -16.8696 -1.78655 -27.5768
ltibia 17.3847
lfoot -6.51998 -4.27369
ltoes -7.09794
458
root -0.847948 29.1977 -2.69428 -170.952 -10.8359 178.224
lowerback 5.22837 0.802602 -4.93053
upperback -0.0326515 0.762252 0.293641
thorax -3.03809 0.44912 3.01297
lowerneck -15.8586 3.81031 -8.94404
upperneck 38.3713 4.57557 1.73759
head 16.0593 -0.367139 2.79757
rclavicle 1.47101e-014 5.1684e-015
rhumerus -30.468 1.00741 -83.2127
rradius 41.7914
rwrist 16.2373
rhand -20.2706 2.77943
rfingers 7.12502
rthumb 6.0786 -27.1134
lclavicle 1.47101e-014 5.1684e-015
lhumerus -29.2994 5.53035 81.4541
lradius 37.2875
lwrist 0.148617
lhand -17.6153 24.7156
lfingers 7.12502
lthumb 8.64157 54.5187
rfemur -29.5322 -5.34515 16.9886
rtibia 64.4584
rfoot -13.2458 -7.30478
rtoes 5.32946
lfemur -16.3012 -1.68403 -27.7138
ltibia 16.9306
lfoot -6.44309 -4.74878
ltoes -6.63186
459
root -0.85038 29.2035 -2.74829 -171.11 -11.1487 178.071
lowerback 5.08478 0.786125 -5.0184
upperback -0.0267116 0.741747 0.253411
thorax -2.95011 0.437551 3.02361
lowerneck -15.6331 3.8723 -8.8784
upperneck 38.1452 4.70294 1.60887
head 15.888 -0.297694 2.74365
rclavicle -8.69683e-015 2.78299e-015
rhumerus -30.4832 0.887397 -83.1867
rradius 41.6555
rwrist 16.2692
rhand -20.2298 2.6942
rfingers 7.12502
rthumb 6.11793 -27.1975
lclavicle -8.69683e-015 2.78299e-015
lhumerus -29.2672 5.68329 81.3497
lradius 37.3292
lwrist 0.28359
lhand -17.7233 24.6762
lfingers 7.12502
lthumb 8.53738 54.4836
rfemur -29.8089 -4.95697 16.5251
rtibia 64.7387
rfoot -13.3898 -6.72363
rtoes 4.63366
lfemur -15.7172 -1.81683 -27.7979
ltibia 16.6544
lfoot -6.47934 -5.00951
ltoes -5.44537
460
root -0.852174 29.1981 -2.7979 -171.261 -11.4831 177.983
lowerback 4.95556 0.77648 -5.02478
upperback -0.0157715 0.735148 0.221501
thorax -2.86521 0.431798 2.99582
lowerneck -15.576 3.94892 -8.63688
upperneck 38.1442 4.8681 1.25927
head 15.8884 -0.24555 2.57622
rclavicle -1.34055e-014 -4.37326e-015
rhumerus -30.5072 0.684997 -83.1335
rradius 41.5322
rwrist 16.2878
rhand -20.2628 2.76189
rfingers 7.12502
rthumb 6.08613 -27.1307
lclavicle -1.34055e-014 -4.37326e-015
lhumerus -29.133 5.85286 81.2565
lradius 37.2692
lwrist 0.429389
lhand -18.0378 24.2383
lfingers 7.12502
lthumb 8.23388 54.0578
rfemur -30.0765 -4.61964 16.1445
rtibia 64.9378
rfoot -13.5759 -6.16857
rtoes 3.30978
lfemur -15.2454 -1.77852 -27.8393
ltibia 16.5851
lfoot -6.66081 -5.47343
ltoes -5.03553
461
root -0.84912 29.1862 -2.84354 -171.33 -11.9465 177.93
lowerback 4.85603 0.813199 -4.9429
upperback -0.0463797 0.79124 0.137165
thorax -2.84352 0.458043 2.85892
lowerneck -15.7505 3.94878 -8.49741
upperneck 38.394 4.82674 1.289
head 16.0638 -0.258761 2.56638
rclavicle -2.29224e-014 1.06847e-014
rhumerus -30.6185 0.182325 -83.0372
rradius 41.4377
rwrist 16.4968
rhand -20.1666 2.64642
rfingers 7.12502
rthumb 6.17897 -27.2435
lclavicle -2.29224e-014 1.06847e-014
lhumerus -28.9642 5.73098 81.2129
lradius 37.2281
lwrist 0.668943
lhand -18.4986 23.8003
lfingers 7.12502
lthumb 7.78915 53.6369
rfemur -30.3849 -4.33398 15.8272
rtibia 65.0356
rfoot -13.7504 -5.42235
rtoes 3.1764
lfemur -14.9807 -1.4653 -27.8709
ltibia 16.6627
lfoot -6.79421 -6.37249
ltoes -4.08698
462
root -0.841941 29.176 -2.88732 -171.338 -12.4684 177.817
lowerback 4.71345 0.585552 -5.10561
upperback -0.0694857 0.494184 0.31462
thorax -2.7647 0.313397 3.15706
lowerneck -16.0619 4.14075 -9.03463
upperneck 38.664 5.2696 1.4372
head 16.224 -0.164737 2.80747
rclavicle -3.4017e-014 -5.96354e-016
rhumerus -30.4862 0.610955 -82.8801
rradius 41.2225
rwrist 16.7001
rhand -20.0586 2.51579
rfingers 7.12502
rthumb 6.28328 -27.371
lclavicle -3.4017e-014 -5.96354e-016
lhumerus -29.0121 6.58316 81.2031
lradius 37.2727
lwrist 0.696824
lhand -18.5326 24.0162
lfingers 7.12502
lthumb 7.75627 53.854
rfemur -30.7224 -3.9984 15.4608
rtibia 65.0064
rfoot -13.8182 -4.62113
rtoes 4.96457
lfemur -14.8169 -1.22421 -27.935
ltibia 16.7909
lfoot -6.76244 -7.36213
ltoes -1.94183
463
root -0.831839 29.1668 -2.92939 -171.401 -13.0581 177.766
lowerback 4.68471 0.58983 -5.11311
upperback -0.116311 0.498705 0.26499
thorax -2.79706 0.317237 3.10949
lowerneck -15.9949 4.12041 -8.81992
upperneck 38.6241 5.23415 1.29376
head 16.2051 -0.158967 2.70134
rclavicle 1.20513e-014 -1.98785e-016
rhumerus -30.537 0.0329488 -82.766
rradius 40.9795
rwrist 16.9425
rhand -20.0425 2.58448
rfingers 7.12502
rthumb 6.29875 -27.3019
lclavicle 1.20513e-014 -1.98785e-016
lhumerus -28.8377 6.54314 81.1299
lradius 37.1878
lwrist 0.603538
lhand -18.1875 24.2024
lfingers 7.12502
lthumb 8.08935 54.0276
rfemur -30.9952 -3.67041 15.1794
rtibia 64.8502
rfoot -14.0919 -4.00106
rtoes 5.5539
lfemur -14.6294 -1.11144 -27.8872
ltibia 16.869
lfoot -6.78956 -8.21796
ltoes -0.637544
464
root -0.819894 29.1616 -2.97193 -171.493 -13.7453 177.568
lowerback 4.79962 0.539768 -5.25829
upperback -0.173328 0.413016 0.207077
thorax -2.91374 0.280027 3.13667
lowerneck -15.7782 4.15702 -8.6509
upperneck 38.422 5.31521 1.09737
head 16.0591 -0.103124 2.59365
rclavicle 1.00635e-015 0
rhumerus -30.5684 -0.523512 -82.625
rradius 40.635
rwrist 17.257
rhand -20.1182 2.82216
rfingers 7.12502
rthumb 6.22571 -27.0664
lclavicle 1.00635e-015 0
lhumerus -28.7172 6.66401 81.038
lradius 37.1009
lwrist 0.816253
lhand -18.1551 23.9886
lfingers 7.12502
lthumb 8.12067 53.8125
rfemur -31.1799 -3.31614 14.73
rtibia 64.5557
rfoot -14.443 -3.59175
rtoes 3.64975
lfemur -14.3362 -1.05014 -27.987
ltibia 16.8783
lfoot -6.93849 -9.0212
ltoes -0.24575
465
root -0.811374 29.158 -3.01709 -171.522 -14.4215 177.28
lowerback 4.86626 0.53243 -5.44435
upperback -0.197559 0.383184 0.117458
thorax -2.97459 0.268575 3.15029
lowerneck -15.8564 4.12092 -8.58076
upperneck 38.4935 5.29718 1.01183
head 16.1248 -0.114149 2.54613
rclavicle 6.1002e-015 4.47266e-015
rhumerus -30.5977 -1.20761 -82.4093
rradius 40.3765
rwrist 17.6396
rhand -20.1236 3.05609
rfingers 7.12502
rthumb 6.22046 -26.8326
lclavicle 6.1002e-015 4.47266e-015
lhumerus -28.5114 6.63594 81.0031
lradius 37.0086
lwrist 1.1637
lhand -18.0075 23.8905
lfingers 7.12502
lthumb 8.26314 53.7089
rfemur -31.34 -2.92638 14.1524
rtibia 64.1314
rfoot -14.7291 -3.17899
rtoes 0.763543
lfemur -14.0565 -0.991293 -28.1998
ltibia 16.8789
lfoot -7.25815 -9.69388
ltoes -1.20041
466
root -0.802004 29.1486 -3.05981 -171.603 -15.1222 177.25
lowerback 4.90948 0.431668 -5.47683
upperback -0.243386 0.24821 0.22126
thorax -3.03423 0.206191 3.28623
lowerneck -15.8353 4.16793 -8.69548
upperneck 38.5316 5.4387 0.929837
head 16.1321 -0.08848 2.55338
rclavicle 6.55989e-015 -9.24349e-015
rhumerus -30.6882 -1.5264 -82.1548
rradius 40.3138
rwrist 17.6795
rhand -19.8066 2.96359
rfingers 7.12502
rthumb 6.52655 -26.9158
lclavicle 6.55989e-015 -9.24349e-015
lhumerus -28.4536 7.08309 81.0122
lradius 36.8919
lwrist 1.04776
lhand -17.8064 23.916
lfingers 7.12502
lthumb 8.45721 53.7266
rfemur -31.4232 -2.45365 13.8681
rtibia 63.5625
rfoot -14.9633 -2.88178
rtoes -0.838614
lfemur -13.8251 -0.980463 -28.1313
ltibia 16.8434
lfoot -7.65983 -10.1725
ltoes -3.56245
467
root -0.795242 29.1409 -3.10563 -171.646 -15.8505 177.427
lowerback 4.77526 0.256465 -5.28867
upperback -0.256045 0.0431544 0.418051
thorax -2.95129 0.102362 3.39974
lowerneck -15.9579 4.28289 -9.03619
upperneck 38.5834 5.7281 1.02276
head 16.1527 -0.00779174 2.70523
rclavicle 2.90723e-014 -2.5842e-015
rhumerus -30.6527 -1.6515 -81.9067
rradius 40.2541
rwrist 17.5618
rhand -19.5108 2.75468
rfingers 7.12502
rthumb 6.81209 -27.1157
lclavicle 2.90723e-014 -2.5842e-015
lhumerus -28.3401 7.86069 81.0366
lradius 36.7287
lwrist 0.688472
lhand -17.886 23.9157
lfingers 7.12502
lthumb 8.38034 53.7294
rfemur -31.4788 -1.94225 13.7838
rtibia 62.842
rfoot -15.2437 -2.62498
rtoes -1.75703
lfemur -13.6905 -0.975946 -27.8581
ltibia 16.8561
lfoot -8.01485 -10.7028
ltoes -5.34905
